<?xml version="1.0" encoding="UTF-8" standalone="no"?>
<!-- Created with Inkscape (http://www.inkscape.org/) -->

<svg
   xmlns:dc="http://purl.org/dc/elements/1.1/"
   xmlns:cc="http://creativecommons.org/ns#"
   xmlns:rdf="http://www.w3.org/1999/02/22-rdf-syntax-ns#"
   xmlns:svg="http://www.w3.org/2000/svg"
   xmlns="http://www.w3.org/2000/svg"
   xmlns:xlink="http://www.w3.org/1999/xlink"
   xmlns:sodipodi="http://sodipodi.sourceforge.net/DTD/sodipodi-0.dtd"
   xmlns:inkscape="http://www.inkscape.org/namespaces/inkscape"
   width="744.09448819"
   height="1052.3622047"
   id="svg2"
   version="1.1"
   inkscape:version="0.48.4 r9939"
   sodipodi:docname="cover.svg">
  <defs
     id="defs4">
    <clipPath
       id="clipPath3031"
       clipPathUnits="userSpaceOnUse">
      <path
         id="path3033"
         d="m 0,0 872,0 0,267.992 -872,0 L 0,0 z" />
    </clipPath>
  </defs>
  <sodipodi:namedview
     id="base"
     pagecolor="#ffffff"
     bordercolor="#666666"
     borderopacity="1.0"
     inkscape:pageopacity="0.0"
     inkscape:pageshadow="2"
     inkscape:zoom="0.98994949"
     inkscape:cx="-17.949341"
     inkscape:cy="520"
     inkscape:document-units="px"
     inkscape:current-layer="layer1"
     showgrid="false"
     inkscape:window-width="2141"
     inkscape:window-height="1492"
     inkscape:window-x="41"
     inkscape:window-y="63"
     inkscape:window-maximized="0" />
  <metadata
     id="metadata7">
    <rdf:RDF>
      <cc:Work
         rdf:about="">
        <dc:format>image/svg+xml</dc:format>
        <dc:type
           rdf:resource="http://purl.org/dc/dcmitype/StillImage" />
        <dc:title />
      </cc:Work>
    </rdf:RDF>
  </metadata>
  <g
     inkscape:label="Layer 1"
     inkscape:groupmode="layer"
     id="layer1">
    <flowRoot
       xml:space="preserve"
       id="flowRoot2985"
       style="font-size:18px;font-style:normal;font-variant:normal;font-weight:normal;font-stretch:normal;text-align:start;line-height:125%;letter-spacing:0px;word-spacing:0px;writing-mode:lr-tb;text-anchor:start;fill:#000000;fill-opacity:1;stroke:none;font-family:Sans;-inkscape-font-specification:Sans"><flowRegion
         id="flowRegion2987"><rect
           id="rect2989"
           width="706.09692"
           height="192.93915"
           x="29.294424"
           y="170.49901" /></flowRegion><flowPara
         style="font-size:56px;font-style:normal;font-variant:normal;font-weight:900;font-stretch:normal;text-align:start;line-height:125%;writing-mode:lr-tb;text-anchor:start;font-family:Arial Black;-inkscape-font-specification:'Arial Black, Heavy'"
         id="flowPara2993">Τεχνολογία λογισμικού</flowPara><flowPara
         style="font-size:56px;font-style:normal;font-variant:normal;font-weight:900;font-stretch:normal;text-align:start;line-height:125%;writing-mode:lr-tb;text-anchor:start;font-family:Arial Black;-inkscape-font-specification:'Arial Black, Heavy'"
         id="flowPara2997">Οδηγός γνώσης</flowPara></flowRoot>    <flowRoot
       xml:space="preserve"
       id="flowRoot2999"
       style="font-size:24px;font-style:normal;font-variant:normal;font-weight:normal;font-stretch:normal;text-align:start;line-height:125%;letter-spacing:0px;word-spacing:0px;writing-mode:lr-tb;text-anchor:start;fill:#000000;fill-opacity:1;stroke:none;font-family:Sans;-inkscape-font-specification:Sans"
       transform="translate(0.79492187,0)"><flowRegion
         id="flowRegion3001"><rect
           id="rect3003"
           width="705.08661"
           height="130.30968"
           x="28.284271"
           y="410.91531"
           style="font-size:24px;font-style:normal;font-variant:normal;font-weight:normal;font-stretch:normal;text-align:start;line-height:125%;writing-mode:lr-tb;text-anchor:start;font-family:Sans;-inkscape-font-specification:Sans" /></flowRegion><flowPara
         id="flowPara3007"
         style="font-size:28px;font-style:normal;font-variant:normal;font-weight:normal;font-stretch:normal;text-align:start;line-height:125%;writing-mode:lr-tb;text-anchor:start;font-family:Sans;-inkscape-font-specification:Sans">Ελληνική απόδοση του <flowSpan
   style="font-size:36px;font-style:normal;font-variant:normal;font-weight:bold;font-stretch:normal;text-align:start;line-height:125%;writing-mode:lr-tb;text-anchor:start;font-family:Sans;-inkscape-font-specification:Sans Bold"
   id="flowSpan3071">SWEBOK V3.0</flowSpan></flowPara><flowPara
         id="flowPara3009"
         style="font-size:28px;font-style:normal;font-variant:normal;font-weight:normal;font-stretch:normal;text-align:start;line-height:125%;writing-mode:lr-tb;text-anchor:start;font-family:Sans;-inkscape-font-specification:Sans">Guide to the Software Engineering Body of Knowledge</flowPara></flowRoot>    <flowRoot
       xml:space="preserve"
       id="flowRoot3011"
       style="font-size:18px;font-style:normal;font-variant:normal;font-weight:normal;font-stretch:normal;text-align:start;line-height:125%;letter-spacing:0px;word-spacing:0px;writing-mode:lr-tb;text-anchor:start;fill:#000000;fill-opacity:1;stroke:none;font-family:Sans;-inkscape-font-specification:Sans"><flowRegion
         id="flowRegion3013"><rect
           id="rect3015"
           width="291.93408"
           height="114.14724"
           x="433.35544"
           y="670.52454" /></flowRegion><flowPara
         id="flowPara3017" /></flowRoot>    <flowRoot
       xml:space="preserve"
       id="flowRoot3039"
       style="font-size:18px;font-style:normal;font-variant:normal;font-weight:normal;font-stretch:normal;text-align:start;line-height:125%;letter-spacing:0px;word-spacing:0px;writing-mode:lr-tb;text-anchor:start;fill:#000000;fill-opacity:1;stroke:none;font-family:Sans;-inkscape-font-specification:Sans"
       transform="translate(6.0566406,-24.243661)"><flowRegion
         id="flowRegion3041"><rect
           id="rect3043"
           width="305.06607"
           height="125.25892"
           x="410.12195"
           y="670.52454" /></flowRegion><flowPara
         id="flowPara3045"
         style="font-size:22px;font-style:normal;font-variant:normal;font-weight:bold;font-stretch:normal;text-align:start;line-height:125%;writing-mode:lr-tb;text-anchor:start;font-family:Sans;-inkscape-font-specification:Sans">Επιμέλεια α<flowSpan
   style="font-size:22px;font-style:normal;font-variant:normal;font-weight:bold;font-stretch:normal;text-align:end;line-height:125%;writing-mode:lr-tb;text-anchor:end;font-family:Sans;-inkscape-font-specification:Sans Bold"
   id="flowSpan3051">γγλικής έκδοσης</flowSpan></flowPara><flowPara
         id="flowPara3047"
         style="font-size:22px;font-style:normal;font-variant:normal;font-weight:normal;font-stretch:normal;text-align:end;line-height:125%;writing-mode:lr-tb;text-anchor:end;font-family:Sans;-inkscape-font-specification:Sans">Pierre Bourque</flowPara><flowPara
         id="flowPara3049"
         style="font-size:22px;font-style:normal;font-variant:normal;font-weight:normal;font-stretch:normal;text-align:end;line-height:125%;writing-mode:lr-tb;text-anchor:end;font-family:Sans;-inkscape-font-specification:Sans">Richard E. (Dick) Fairley</flowPara></flowRoot>    <flowRoot
       xml:space="preserve"
       id="flowRoot3055"
       style="font-size:22px;font-style:normal;font-variant:normal;font-weight:normal;font-stretch:normal;text-align:end;line-height:125%;letter-spacing:0px;word-spacing:0px;writing-mode:lr-tb;text-anchor:end;fill:#000000;fill-opacity:1;stroke:none;font-family:Sans;-inkscape-font-specification:Sans"
       transform="translate(-10.056641,-76.771593)"><flowRegion
         id="flowRegion3057"><rect
           id="rect3059"
           width="318.19806"
           height="170.71579"
           x="413.1524"
           y="822.04742"
           style="font-size:22px;font-style:normal;font-variant:normal;font-weight:normal;font-stretch:normal;text-align:end;line-height:125%;writing-mode:lr-tb;text-anchor:end;font-family:Sans;-inkscape-font-specification:Sans" /></flowRegion><flowPara
         id="flowPara3061"
         style="font-size:22px;font-style:normal;font-variant:normal;font-weight:bold;font-stretch:normal;text-align:end;line-height:125%;writing-mode:lr-tb;text-anchor:end;font-family:Sans;-inkscape-font-specification:Sans Bold">Επιμέλεια ελληνικής έκδοσης</flowPara><flowPara
         id="flowPara3065"
         style="font-size:22px;font-style:normal;font-variant:normal;font-weight:normal;font-stretch:normal;text-align:end;line-height:125%;writing-mode:lr-tb;text-anchor:end;font-family:Sans;-inkscape-font-specification:Sans">Διομήδης Σπινέλλης</flowPara><flowPara
         id="flowPara3067"
         style="font-size:22px;font-style:normal;font-variant:normal;font-weight:normal;font-stretch:normal;text-align:end;line-height:125%;writing-mode:lr-tb;text-anchor:end;font-family:Sans;-inkscape-font-specification:Sans">Μάιρα Δελοπούλου</flowPara><flowPara
         id="flowPara3069"
         style="font-size:22px;font-style:normal;font-variant:normal;font-weight:normal;font-stretch:normal;text-align:end;line-height:125%;writing-mode:lr-tb;text-anchor:end;font-family:Sans;-inkscape-font-specification:Sans">Άννα Μέρλου</flowPara><flowPara
         id="flowPara3063"
         style="font-size:22px;font-style:normal;font-variant:normal;font-weight:normal;font-stretch:normal;text-align:end;line-height:125%;writing-mode:lr-tb;text-anchor:end;font-family:Sans;-inkscape-font-specification:Sans" /></flowRoot>    <image
       y="248.49403"
       x="577.30927"
       id="image3103"
       xlink:href="file:///C:/dds/pubs/current/swebok-el/extra%20figures/swebok-logo.png"
       height="159.17749"
       width="137.52327" />
    <g
       id="g3142"
       transform="translate(-119.99461,49.497475)">
      <g
         id="g3023"
         inkscape:label="ink_ext_XXXXXX"
         transform="matrix(1.25,0,0,-1.25,150.56092,875.16249)">
        <g
           id="g3025"
           transform="scale(0.1,0.1)">
          <g
             id="g3027">
            <g
               id="g3029"
               clip-path="url(#clipPath3031)">
              <path
                 inkscape:connector-curvature="0"
                 d="m 304.082,37.1563 52.1289,0 0,188.203 -52.1289,0 0,-188.203 z"
                 style="fill:#231f20;fill-opacity:1;fill-rule:nonzero;stroke:none"
                 id="path3035" />
              <path
                 inkscape:connector-curvature="0"
                 d="m 383.574,37.1563 0,188.2027 143.36,0 0,-36.492 -91.231,0 0,-38.847 83.926,0 0,-36.473 -83.926,0 0,-39.8947 91.231,0 0,-36.496 -143.36,0"
                 style="fill:#231f20;fill-opacity:1;fill-rule:nonzero;stroke:none"
                 id="path3037" />
              <path
                 inkscape:connector-curvature="0"
                 d="m 556.113,37.1563 0,188.2027 143.379,0 0,-36.492 -91.25,0 0,-38.847 83.946,0 0,-36.473 -83.946,0 0,-39.8947 91.25,0 0,-36.496 -143.379,0"
                 style="fill:#231f20;fill-opacity:1;fill-rule:nonzero;stroke:none"
                 id="path3039" />
              <path
                 inkscape:connector-curvature="0"
                 d="m 728.672,37.1563 0,188.2027 143.348,0 0,-36.492 -91.219,0 0,-38.847 83.933,0 0,-36.473 -83.933,0 0,-39.8947 91.219,0 0,-36.496 -143.348,0"
                 style="fill:#231f20;fill-opacity:1;fill-rule:nonzero;stroke:none"
                 id="path3041" />
              <path
                 inkscape:connector-curvature="0"
                 d="m 188.711,20.0586 c 0,-4.3359 -3.086,-7.2461 -6.738,-7.2461 l 0,0 c -3.731,0 -6.739,2.9102 -6.739,7.2461 0,4.3555 3.008,7.2148 6.739,7.2148 3.652,0 6.738,-2.8593 6.738,-7.2148 z m 2.715,0 c 0,5.9648 -4.473,9.4219 -9.453,9.4219 -5,0 -9.473,-3.4571 -9.473,-9.4219 0,-5.9648 4.473,-9.4336 9.473,-9.4336 4.98,0 9.453,3.4688 9.453,9.4336 z m -11.016,-0.8008 1.016,0 2.344,-4.2695 2.578,0 -2.598,4.4453 c 1.348,0.0977 2.441,0.7812 2.441,2.6445 0,2.336 -1.543,3.0586 -4.179,3.0586 l -3.77,0 0,-10.1484 2.168,0 0,4.2695 z m 0,1.7188 0,2.4297 1.524,0 c 0.82,0 1.933,-0.0665 1.933,-1.1211 0,-1.1055 -0.566,-1.3086 -1.543,-1.3086 l -1.914,0"
                 style="fill:#231f20;fill-opacity:1;fill-rule:nonzero;stroke:none"
                 id="path3043" />
              <path
                 inkscape:connector-curvature="0"
                 d="m 172.227,118.621 c -26.172,-8.152 -59.063,-7.793 -83.8481,3.117 -4.4922,2.188 -10.1758,5.547 -11.6601,10.782 -1.1133,9.597 9.1601,14.882 16.1328,18.378 4.1211,1.817 8.3004,3.79 12.8324,4.051 4.238,-3.133 8.671,-5.613 13.027,-8.406 -8.477,-2.246 -18.633,-4.191 -22.5587,-13.469 0.6836,-7.019 8.6527,-9.273 14.2187,-11.023 20,-5.293 41.602,-4.61 60.781,2.363 3.614,2.109 9.356,4.668 8.848,9.922 -0.605,5.594 -7.031,8.105 -11.523,9.836 -2.735,-0.383 -5.352,-0.996 -7.911,-1.82 -1.367,3.859 -2.558,7.793 -4.179,11.535 8.476,-2.227 16.953,-4.551 25.742,-6.094 l 0,-0.195 c -1.816,-0.196 -3.809,-0.813 -5.547,-1.524 l 0,-0.304 c 4.981,-2.481 11.895,-6.59 11.953,-13.133 -1.172,-7.903 -9.844,-11.516 -16.308,-14.016 z M 126.309,68.6602 c 1.054,14.4062 1.25,27.6679 1.992,42.0038 5.039,-0.508 9.414,-0.32 14.004,-0.156 l 0.332,-1.895 1.797,-40.0661 c -6.036,-0.8906 -12.461,-0.3828 -18.125,0.1133 z m 6.484,130.1948 2.48,7.981 0.313,0 c 5.117,-14.641 10.41,-29.219 15.879,-43.691 l -10.957,-0.168 -0.254,-1.317 1.621,-39.18 0,-0.617 c -4.043,-0.672 -9.023,-0.496 -13.027,-0.125 l -0.293,0.442 1.816,40.359 0,0.313 c -3.066,0.293 -6.933,0 -10.039,0.293 l 12.461,35.71 z m 21.172,18.45 c -7.11,4.968 -15.313,13.699 -24.492,7.468 -28.457,-19.687 -55.8597,-46.347 -77.93,-73.562 -4.4727,-6.602 -12.3242,-12.891 -8.7696,-21.672 2.5391,-6.504 8.2813,-11.16 11.9532,-16.902 21.6211,-25.9573 47.1484,-50.2073 73.8284,-69.7073 11.699,-7.4727 20.058,4.6211 29.16,10.1562 18.613,14.7188 35.879,32.5899 52.187,49.9691 l 0,0.429 c 6.543,7.922 13.457,15.696 18.555,24.231 2.246,4.187 1.133,9.89 -1.367,13.574 -19.746,28.602 -45.645,53.895 -73.125,76.016 z m 81.777,-87.032 C 230.645,117.559 220.313,107.402 211.27,96.3281 191.719,75.2734 171.094,54.9023 147.988,38.6328 143.32,35.332 137.012,32.3047 131.406,34.9023 114.414,43.8086 100.078,58.3984 85.1953,71.6484 67.9492,87.6641 50.625,106.289 37.5391,125.789 c -1.9336,2.746 -2.5,6.113 -2.4219,9.719 1.6797,6.738 6.2891,12.285 10.6445,17.93 15.4492,19.687 34.3946,38.386 53.5156,55.449 0.4297,0.437 1.2497,1.375 1.9137,1.804 8.243,7.11 16.387,13.399 25,19.551 8.965,6.992 20.235,1.192 27.774,-5.215 7.91,-6.054 16.133,-12.898 23.359,-19.882 l 1.309,-0.743 c 20,-18.562 38.555,-39.179 53.828,-60.984 2.48,-3.809 4.668,-8.105 3.281,-13.145 z m 30.547,11.973 -0.742,0.106 c -22.988,15.636 -44.434,33.332 -64.609,53.39 l -22.305,23.289 c -9.043,10.039 -17.813,21.133 -26.172,31.719 l -10.156,14.395 c -1.231,0.742 -2.793,1.992 -4.16,2.363 -2.989,1.308 -6.231,-0.254 -8.672,-2.11 l -18.36,-23.925 C 81.6406,204.961 46.7578,170.898 8.69141,144.785 5.70313,142.441 1.23047,140.117 0.273438,136.25 -0.703125,132.766 1.09375,129.902 3.28125,127.715 33.7305,106.719 62.8906,81.8047 88.8086,53.4063 93.418,48.5469 97.1484,43.75 101.641,39.1992 109.238,29.1211 118.145,18.9453 125.117,8.125 c 2.188,-2.32422 2.559,-6.05469 5.996,-7.167969 2.657,-0.9374997 5.977,-1.570312 8.535,0 l 2.54,2.558599 c 31.523,44.64847 71.523,84.76567 116.191,117.14837 4.473,3.984 13.008,5.496 13.125,12.899 -0.293,3.449 -2.285,6.789 -5.215,8.683"
                 style="fill:#ffffff;fill-opacity:1;fill-rule:nonzero;stroke:none"
                 id="path3045" />
              <path
                 inkscape:connector-curvature="0"
                 d="m 172.227,118.621 c -26.172,-8.152 -59.063,-7.793 -83.8481,3.117 -4.4922,2.188 -10.1758,5.547 -11.6601,10.782 -1.1133,9.597 9.1601,14.882 16.1328,18.378 4.1211,1.817 8.3004,3.79 12.8324,4.051 4.238,-3.133 8.671,-5.613 13.027,-8.406 -8.477,-2.246 -18.633,-4.191 -22.5587,-13.469 0.6836,-7.019 8.6527,-9.273 14.2187,-11.023 20,-5.293 41.602,-4.61 60.781,2.363 3.614,2.109 9.356,4.668 8.848,9.922 -0.605,5.594 -7.031,8.105 -11.523,9.836 -2.735,-0.383 -5.352,-0.996 -7.911,-1.82 -1.367,3.859 -2.558,7.793 -4.179,11.535 8.476,-2.227 16.953,-4.551 25.742,-6.094 l 0,-0.195 c -1.816,-0.196 -3.809,-0.813 -5.547,-1.524 l 0,-0.304 c 4.981,-2.481 11.895,-6.59 11.953,-13.133 -1.172,-7.903 -9.844,-11.516 -16.308,-14.016 z M 126.309,68.6602 c 1.054,14.4062 1.25,27.6679 1.992,42.0038 5.039,-0.508 9.414,-0.32 14.004,-0.156 l 0.332,-1.895 1.797,-40.0661 c -6.036,-0.8906 -12.461,-0.3828 -18.125,0.1133 z m 6.484,130.1948 2.48,7.981 0.313,0 c 5.117,-14.641 10.41,-29.219 15.879,-43.691 l -10.957,-0.168 -0.254,-1.317 1.621,-39.18 0,-0.617 c -4.043,-0.672 -9.023,-0.496 -13.027,-0.125 l -0.293,0.442 1.816,40.359 0,0.313 c -3.066,0.293 -6.933,0 -10.039,0.293 l 12.461,35.71 z m 21.172,18.45 c -7.11,4.968 -15.313,13.699 -24.492,7.468 -28.457,-19.687 -55.8597,-46.347 -77.93,-73.562 -4.4727,-6.602 -12.3242,-12.891 -8.7696,-21.672 2.5391,-6.504 8.2813,-11.16 11.9532,-16.902 21.6211,-25.9573 47.1484,-50.2073 73.8284,-69.7073 11.699,-7.4727 20.058,4.6211 29.16,10.1562 18.613,14.7188 35.879,32.5899 52.187,49.9691 l 0,0.429 c 6.543,7.922 13.457,15.696 18.555,24.231 2.246,4.187 1.133,9.89 -1.367,13.574 -19.746,28.602 -45.645,53.895 -73.125,76.016 z m 81.777,-87.032 C 230.645,117.559 220.313,107.402 211.27,96.3281 191.719,75.2734 171.094,54.9023 147.988,38.6328 143.32,35.332 137.012,32.3047 131.406,34.9023 114.414,43.8086 100.078,58.3984 85.1953,71.6484 67.9492,87.6641 50.625,106.289 37.5391,125.789 c -1.9336,2.746 -2.5,6.113 -2.4219,9.719 1.6797,6.738 6.2891,12.285 10.6445,17.93 15.4492,19.687 34.3946,38.386 53.5156,55.449 0.4297,0.437 1.2497,1.375 1.9137,1.804 8.243,7.11 16.387,13.399 25,19.551 8.965,6.992 20.235,1.192 27.774,-5.215 7.91,-6.054 16.133,-12.898 23.359,-19.882 l 1.309,-0.743 c 20,-18.562 38.555,-39.179 53.828,-60.984 2.48,-3.809 4.668,-8.105 3.281,-13.145 z m 30.547,11.973 -0.742,0.106 c -22.988,15.636 -44.434,33.332 -64.609,53.39 l -22.305,23.289 c -9.043,10.039 -17.813,21.133 -26.172,31.719 l -10.156,14.395 c -1.231,0.742 -2.793,1.992 -4.16,2.363 -2.989,1.308 -6.231,-0.254 -8.672,-2.11 l -18.36,-23.925 C 81.6406,204.961 46.7578,170.898 8.69141,144.785 5.70313,142.441 1.23047,140.117 0.273438,136.25 -0.703125,132.766 1.09375,129.902 3.28125,127.715 33.7305,106.719 62.8906,81.8047 88.8086,53.4063 93.418,48.5469 97.1484,43.75 101.641,39.1992 109.238,29.1211 118.145,18.9453 125.117,8.125 c 2.188,-2.32422 2.559,-6.05469 5.996,-7.167969 2.657,-0.9374997 5.977,-1.570312 8.535,0 l 2.54,2.558599 c 31.523,44.64847 71.523,84.76567 116.191,117.14837 4.473,3.984 13.008,5.496 13.125,12.899 -0.293,3.449 -2.285,6.789 -5.215,8.683"
                 style="fill:#231f20;fill-opacity:1;fill-rule:nonzero;stroke:none"
                 id="path3047" />
            </g>
          </g>
        </g>
      </g>
    </g>
    <g
       transform="matrix(0.77768548,0,0,-0.77768548,30.566406,986.4888)"
       inkscape:label="ink_ext_XXXXXX"
       id="g3070">
      <g
         transform="scale(0.1,0.1)"
         id="g3072">
        <path
           id="path3074"
           style="fill:#231f20;fill-opacity:1;fill-rule:nonzero;stroke:none"
           d="m 0,100.742 20.9805,0 0,233.984 -20.9805,0 0,-233.984 z"
           inkscape:connector-curvature="0" />
        <path
           id="path3076"
           style="fill:#231f20;fill-opacity:1;fill-rule:nonzero;stroke:none"
           d="m 79.082,100.742 0,233.028 138.457,0 0,-19.375 -117.48,0 0,-83.594 112.961,0 0,-19.363 -112.961,0 0,-91.34 122.32,0 0,-19.356 -143.297,0"
           inkscape:connector-curvature="0" />
        <path
           id="path3078"
           style="fill:#231f20;fill-opacity:1;fill-rule:nonzero;stroke:none"
           d="m 273.051,100.742 0,233.028 138.457,0 0,-19.375 -117.481,0 0,-83.594 112.977,0 0,-19.363 -112.977,0 0,-91.34 122.321,0 0,-19.356 -143.297,0"
           inkscape:connector-curvature="0" />
        <path
           id="path3080"
           style="fill:#231f20;fill-opacity:1;fill-rule:nonzero;stroke:none"
           d="m 468.637,100.742 0,233.028 138.465,0 0,-19.375 -117.485,0 0,-83.594 112.961,0 0,-19.363 -112.961,0 0,-91.34 122.321,0 0,-19.356 -143.301,0"
           inkscape:connector-curvature="0" />
        <path
           id="path3082"
           style="fill:#231f20;fill-opacity:1;fill-rule:nonzero;stroke:none"
           d="m 1238.72,96.0859 c -33.38,0 -58.43,11.6021 -74.66,34.7811 -15.3,21.789 -22.26,48.696 -22.26,83.949 0,52.411 16.69,82.547 38.96,102.5 17.15,15.301 37.56,23.641 60.28,23.641 25.05,0 45.45,-8.34 63.08,-24.57 l -22.26,-29.231 c -15.31,13.457 -25.98,18.086 -40.82,18.086 -17.62,0 -32.92,-9.273 -40.81,-25.047 -7.88,-15.761 -11.12,-38.933 -11.12,-70.937 0,-32.461 6.48,-53.809 18.55,-66.778 8.35,-8.82 19.94,-13.933 33.38,-13.933 17.16,0 34.32,8.34 48.24,24.109 l 20.86,-26.418 c -22.25,-21.812 -41.73,-30.1521 -71.42,-30.1521"
           inkscape:connector-curvature="0" />
        <path
           id="path3084"
           style="fill:#231f20;fill-opacity:1;fill-rule:nonzero;stroke:none"
           d="m 1422.03,306.641 c -37.1,0 -52.41,-26.446 -52.41,-84.871 0,-70.95 18.09,-94.59 54.26,-94.59 32.46,0 52.4,25.039 52.4,85.781 0,71.863 -20.87,93.68 -54.25,93.68 m 0.92,-212.3949 c -62.14,0 -100.63,47.2969 -100.63,122.8949 0,75.125 38.49,122.422 99.71,122.422 68.63,0 102.02,-54.739 102.02,-124.747 0,-73.742 -39.42,-120.5699 -101.1,-120.5699 l 0,0"
           inkscape:connector-curvature="0" />
        <path
           id="path3086"
           style="fill:#231f20;fill-opacity:1;fill-rule:nonzero;stroke:none"
           d="m 1810.07,100.742 0,166.485 c 0,26.406 -8.35,35.695 -27.83,35.695 -21.33,0 -36.63,-13.906 -54.25,-31.535 l 0,-170.645 -41.74,0 0,165.559 c 0,25.965 -7.43,35.691 -28.76,35.691 -15.77,0 -33.39,-7.883 -53.33,-26.883 l 0,-174.367 -42.2,0 0,170.645 c 0,32.929 -1.86,41.738 -8.35,57.968 l 39.89,9.739 c 4.64,-7.871 7.88,-19.477 7.88,-32.453 19.94,20.859 43.59,32.922 65.39,32.922 21.8,0 43.59,-11.594 55.19,-36.641 23.18,24.578 47.3,36.641 70.95,36.641 36.18,0 59.36,-22.715 59.36,-65.383 l 0,-173.438 -42.2,0"
           inkscape:connector-curvature="0" />
        <path
           id="path3088"
           style="fill:#231f20;fill-opacity:1;fill-rule:nonzero;stroke:none"
           d="m 1990.46,302.922 c -20.88,0 -39.89,-10.188 -55.65,-28.742 l 0,-118.262 c 14.38,-15.305 32.46,-25.508 49.62,-25.508 37.56,0 54.72,28.762 54.72,85.344 0,55.176 -12.07,87.168 -48.69,87.168 m 3.7,-206.8361 c -21.33,0 -42.21,7.8791 -60.29,24.1091 0.94,-7.422 0.94,-17.597 0.94,-25.9489 l 0,-81.6367 -41.74,-9.71877 0,273.14437 c 0,27.356 -1.85,42.188 -5.11,57.039 l 41.27,6.965 c 1.87,-6.965 2.8,-13.945 2.8,-33.398 18.08,21.789 41.27,32.453 65.85,32.453 47.29,0 87.17,-38.481 87.17,-118.254 0,-72.344 -31.53,-124.7541 -90.89,-124.7541 l 0,0"
           inkscape:connector-curvature="0" />
        <path
           id="path3090"
           style="fill:#231f20;fill-opacity:1;fill-rule:nonzero;stroke:none"
           d="m 2283.08,92.8516 c -11.58,8.8204 -17.64,17.6284 -21.8,33.3864 -18.55,-22.742 -41.27,-33.3864 -70.03,-33.3864 -29.67,0 -52.86,13.4374 -62.6,34.7654 -4.18,9.27 -5.57,22.278 -5.57,38.977 l 0,165.097 42.21,8.348 0,-161.875 c 0,-23.641 2.3,-32.93 10.66,-40.809 6.04,-5.558 16.7,-10.175 26.9,-10.175 20.86,0 43.14,16.226 52.87,36.621 l 0,166.961 42.19,8.332 0,-174.836 c 0,-23.645 5.11,-40.34 14.37,-48.223 l -29.2,-23.1834"
           inkscape:connector-curvature="0" />
        <path
           id="path3092"
           style="fill:#231f20;fill-opacity:1;fill-rule:nonzero;stroke:none"
           d="m 2452.96,302.922 -45.93,0 0,-140.051 c 0,-28.738 6.97,-37.558 30.15,-37.558 7.89,0 14.4,1.398 21.8,4.628 l 5.12,-25.976 c -12.99,-6.4845 -26.92,-9.7189 -42.21,-9.7189 -15.31,0 -32.01,4.6328 -39.43,11.5819 -9.73,8.813 -17.15,13.457 -17.15,47.297 l 0,149.797 -27.81,0 0,30.152 27.81,0 c 0,18.071 0.45,41.742 2.77,59.34 l 44.06,10.215 c -1.85,-16.691 -4.18,-45.899 -4.18,-69.555 l 56.59,0 -11.59,-30.152"
           inkscape:connector-curvature="0" />
        <path
           id="path3094"
           style="fill:#231f20;fill-opacity:1;fill-rule:nonzero;stroke:none"
           d="m 2601.83,291.809 c -7.42,9.246 -18.55,16.226 -33.4,16.226 -32.46,0 -48.69,-26.433 -48.69,-68.64 l 96.47,0 c 0,22.257 -5.12,40.8 -14.38,52.414 m -82.56,-83.95 0,-5.582 c 0,-19.933 2.78,-35.226 9.75,-46.359 12.05,-18.563 31.07,-27.371 53.32,-27.371 21.8,0 40.33,7.41 57.05,22.273 l 16.21,-25.507 c -22.71,-19.954 -50.08,-29.6997 -80.21,-29.6997 -64.46,0 -103.89,46.8667 -103.89,122.8947 0,40.371 7.89,66.316 27.83,89.988 18.56,21.785 41.27,32 70.02,32 25.98,0 46.86,-8.348 63.09,-25.035 20.39,-20.891 27.81,-46.867 28.28,-100.188 0,-1.386 0,-4.648 0,-7.414 l -141.45,0 0,0"
           inkscape:connector-curvature="0" />
        <path
           id="path3096"
           style="fill:#231f20;fill-opacity:1;fill-rule:nonzero;stroke:none"
           d="m 2803.08,295.496 c -4.16,1.399 -7.4,2.336 -12.03,2.336 -26,0 -48.24,-21.797 -48.24,-47.305 l 0,-149.785 -42.68,0 0,170.645 c 0,28.301 -3.24,43.601 -8.81,57.968 l 41.27,10.684 c 4.18,-8.816 7.89,-24.121 7.89,-35.723 l 0,-4.16 c 18.56,26.887 38.5,40.34 63.09,40.34 5.57,0 10.64,-0.933 14.37,-2.332 l -14.86,-42.668"
           inkscape:connector-curvature="0" />
        <path
           id="path3098"
           style="fill:#231f20;fill-opacity:1;fill-rule:nonzero;stroke:none"
           d="m 2972.73,94.2461 c -28.3,0 -59.82,8.7889 -86.74,24.5819 l 15.31,30.598 c 22.29,-12.539 48.7,-23.188 74.65,-23.188 25.53,0 43.15,14.836 43.15,37.563 0,19.949 -12.05,31.531 -38.95,36.648 l -28.3,5.547 c -36.62,6.965 -56.56,30.149 -56.56,64.465 0,42.664 33.85,72.344 83.92,72.344 28.3,0 54.26,-7.883 73.29,-19.004 l -14.38,-30.168 c -21.33,10.683 -38.5,16.711 -57.03,16.711 -24.59,0 -40.35,-13.918 -40.35,-34.77 0,-16.695 8.34,-25.972 32.93,-31.558 l 30.13,-6.946 c 42.68,-9.746 60.3,-34.328 60.3,-64.922 0,-46.367 -37.11,-77.9019 -91.37,-77.9019"
           inkscape:connector-curvature="0" />
        <path
           id="path3100"
           style="fill:#231f20;fill-opacity:1;fill-rule:nonzero;stroke:none"
           d="m 3190.7,306.641 c -37.11,0 -52.42,-26.446 -52.42,-84.871 0,-70.95 18.08,-94.59 54.25,-94.59 32.47,0 52.41,25.039 52.41,85.781 0,71.863 -20.86,93.68 -54.24,93.68 m 0.92,-212.3949 c -62.15,0 -100.63,47.2969 -100.63,122.8949 0,75.125 38.48,122.422 99.71,122.422 68.61,0 102.01,-54.739 102.01,-124.747 0,-73.742 -39.41,-120.5699 -101.09,-120.5699 l 0,0"
           inkscape:connector-curvature="0" />
        <path
           id="path3102"
           style="fill:#231f20;fill-opacity:1;fill-rule:nonzero;stroke:none"
           d="m 3416.54,96.0859 c -33.4,0 -58.46,11.6021 -74.69,34.7811 -15.29,21.789 -22.25,48.696 -22.25,83.949 0,52.411 16.7,82.547 38.97,102.5 17.15,15.301 37.56,23.641 60.27,23.641 25.06,0 45.45,-8.34 63.09,-24.57 l -22.27,-29.231 c -15.31,13.457 -25.97,18.086 -40.82,18.086 -17.61,0 -32.91,-9.273 -40.8,-25.047 -7.89,-15.761 -11.13,-38.933 -11.13,-70.937 0,-32.461 6.48,-53.809 18.55,-66.778 8.34,-8.82 19.95,-13.933 33.38,-13.933 17.17,0 34.34,8.34 48.24,24.109 l 20.86,-26.418 c -22.26,-21.812 -41.73,-30.1521 -71.4,-30.1521"
           inkscape:connector-curvature="0" />
        <path
           id="path3104"
           style="fill:#231f20;fill-opacity:1;fill-rule:nonzero;stroke:none"
           d="m 3516.69,100.742 0,230.949 44.07,6.954 0,-237.903 -44.07,0 m 21.8,273.145 c -16.7,0 -29.67,13.918 -29.67,30.597 0,17.168 13.44,31.075 30.14,31.075 16.7,0 30.61,-13.438 30.61,-31.075 0,-16.679 -13.91,-30.597 -31.08,-30.597 l 0,0"
           inkscape:connector-curvature="0" />
        <path
           id="path3106"
           style="fill:#231f20;fill-opacity:1;fill-rule:nonzero;stroke:none"
           d="m 3728.18,291.809 c -7.42,9.246 -18.56,16.226 -33.42,16.226 -32.44,0 -48.67,-26.433 -48.67,-68.64 l 96.46,0 c 0,22.257 -5.11,40.8 -14.37,52.414 m -82.56,-83.95 0,-5.582 c 0,-19.933 2.79,-35.226 9.75,-46.359 12.05,-18.563 31.05,-27.371 53.32,-27.371 21.79,0 40.37,7.41 57.05,22.273 l 16.23,-25.507 c -22.74,-19.954 -50.08,-29.6997 -80.24,-29.6997 -64.47,0 -103.86,46.8667 -103.86,122.8947 0,40.371 7.87,66.316 27.81,89.988 18.53,21.785 41.27,32 70.04,32 25.95,0 46.83,-8.348 63.06,-25.035 20.39,-20.891 27.82,-46.867 28.29,-100.188 0,-1.386 0,-4.648 0,-7.414 l -141.45,0 0,0"
           inkscape:connector-curvature="0" />
        <path
           id="path3108"
           style="fill:#231f20;fill-opacity:1;fill-rule:nonzero;stroke:none"
           d="m 3917.38,302.922 -45.9,0 0,-140.051 c 0,-28.738 6.95,-37.558 30.14,-37.558 7.87,0 14.37,1.398 21.79,4.628 l 5.1,-25.976 c -12.99,-6.4845 -26.89,-9.7189 -42.21,-9.7189 -15.29,0 -31.99,4.6328 -39.39,11.5819 -9.77,8.813 -17.17,13.457 -17.17,47.297 l 0,149.797 -27.83,0 0,30.152 27.83,0 c 0,18.071 0.45,41.742 2.77,59.34 l 44.07,10.215 c -1.86,-16.691 -4.18,-45.899 -4.18,-69.555 l 56.58,0 -11.6,-30.152"
           inkscape:connector-curvature="0" />
        <path
           id="path3110"
           style="fill:#231f20;fill-opacity:1;fill-rule:nonzero;stroke:none"
           d="M 4069.96,93.3203 C 4058.82,60.3906 4046.77,35.3516 4030.54,21.875 4019.41,12.6094 4003.18,5.1875 3987.42,1.95313 l -13.46,27.81247 c 16.7,4.1797 28.77,12.0703 40.35,26.4453 7.42,9.2696 12.05,21.8086 19.01,45.4611 l -16.7,-2.3361 c -6.02,27.3751 -12.97,50.0901 -22.25,77.4611 l -51.48,152.558 43.12,9.739 44.53,-146.067 c 4.16,-14.394 10.22,-38.964 13.46,-54.734 l 2.77,0 c 3.71,15.77 9.28,36.648 15.76,57.508 l 41.27,137.273 47.33,0 -81.17,-239.7537"
           inkscape:connector-curvature="0" />
        <path
           id="path3112"
           style="fill:#231f20;fill-opacity:1;fill-rule:nonzero;stroke:none"
           d="m 873.57,426.672 c -111.632,0 -202.109,-90.488 -202.109,-202.109 0,-111.614 90.477,-202.1138 202.109,-202.1138 111.61,0 202.09,90.4998 202.09,202.1138 0,111.621 -90.48,202.109 -202.09,202.109 M 1098.13,224.563 C 1098.13,100.535 997.578,0 873.57,0 749.543,0 649,100.535 649,224.563 c 0,124.023 100.543,224.57 224.57,224.57 124.008,0 224.56,-100.547 224.56,-224.57 l 0,0"
           inkscape:connector-curvature="0" />
        <path
           id="path3114"
           style="fill:#231f20;fill-opacity:1;fill-rule:nonzero;stroke:none"
           d="m 837.473,291.367 0.265,0 0.305,-135.808 -8.355,0 c -37.493,0 -67.887,30.398 -67.887,67.898 0,37.5 30.394,67.91 67.887,67.91 l 7.785,0 m 64.425,-135.808 -0.265,0 -0.305,135.808 8.34,0 c 37.488,0 67.898,-30.398 67.898,-67.898 0,-37.5 -30.41,-67.91 -67.898,-67.91 l -7.77,0 0,0 z m 63.629,162 -64.25,0 -0.179,88.722 -26.078,0 c -12.579,-24.004 -47.211,-41.816 -89.102,-44.238 l -0.199,-0.098 0,-19.711 52.312,0 0,-24.675 -57.543,0 c -51.968,0 -86.316,-42.137 -86.316,-94.09 0,-51.965 34.348,-94.094 86.316,-94.094 l 57.543,0 0,-4.492 c 0,-25.508 -28.453,-46.1721 -53.949,-46.1721 l 0,-19.7187 171.586,0 0,19.7187 c -25.527,0 -53.98,20.6641 -53.98,46.1721 l -0.008,4.492 63.847,0 c 51.973,0 86.323,42.129 86.323,94.094 0,51.953 -34.35,94.09 -86.323,94.09 l 0,0"
           inkscape:connector-curvature="0" />
        <path
           id="path3116"
           style="fill:#231f20;fill-opacity:1;fill-rule:nonzero;stroke:none"
           d="m 1082.92,44.3359 2.83,0 c 3.64,0 5.26,0.3985 6.36,1.418 1.02,1.0039 1.62,2.5195 1.62,4.2344 0,2.6289 -1.01,4.4453 -3.03,5.1484 -0.91,0.4102 -2.73,0.6172 -4.75,0.6172 l -3.03,0 0,-11.418 z m 7.38,18.1836 c 7.47,0 12.42,-4.9531 12.42,-12.3242 0,-6.3672 -4.24,-11.5234 -9.39,-11.6211 0.81,-0.7031 1.21,-1.1133 1.71,-1.8164 2.43,-3.0273 10.11,-16.3672 10.11,-16.3672 l -10,0 c -1.62,2.8321 -2.33,3.9453 -3.94,6.9727 -4.14,7.5781 -5.46,9.6015 -6.97,10.3047 -0.41,0.0976 -0.81,0.3008 -1.32,0.3008 l 0,-17.5782 -8.28,0 0,42.1289 15.66,0 z m -2.53,8.7813 c -15.96,0 -28.79,-13.332 -28.79,-30.1016 0,-16.7656 12.83,-30.3008 28.79,-30.3008 15.96,0 28.89,13.5352 28.89,30.3008 0,16.7696 -12.93,30.1016 -28.89,30.1016 z m 0,-67.67971 c -20.5,0 -37.37,16.57421 -37.37,37.57811 0,20.9102 16.87,37.5781 37.37,37.5781 20.51,0 37.38,-16.6679 37.38,-37.5781 0,-21.0039 -16.87,-37.57811 -37.38,-37.57811"
           inkscape:connector-curvature="0" />
      </g>
    </g>
  </g>
</svg>
